<svg width="152" height="60" viewBox="0 0 152 60" fill="none" xmlns="http://www.w3.org/2000/svg">
<rect width="152" height="60" fill="black"/>
<path d="M15.9521 33.0455V30.7727L34.2475 21.4545V25.0909L20.2134 31.8523L20.3271 31.625V32.1932L20.2134 31.9659L34.2475 38.7273V42.3636L15.9521 33.0455ZM41.8079 46V16.9091H51.6374C53.9102 16.9091 55.7757 17.2973 57.234 18.0739C58.6924 18.8409 59.7719 19.8968 60.4727 21.2415C61.1734 22.5862 61.5238 24.1155 61.5238 25.8295C61.5238 27.5436 61.1734 29.0634 60.4727 30.3892C59.7719 31.715 58.6971 32.7566 57.2482 33.5142C55.7994 34.2623 53.948 34.6364 51.6942 34.6364H43.7397V31.4545H51.5806C53.1336 31.4545 54.3836 31.2273 55.3306 30.7727C56.2871 30.3182 56.9783 29.6742 57.4045 28.8409C57.8401 27.9981 58.0579 26.9943 58.0579 25.8295C58.0579 24.6648 57.8401 23.6468 57.4045 22.7756C56.9689 21.9044 56.2728 21.232 55.3164 20.7585C54.36 20.2756 53.0958 20.0341 51.5238 20.0341H45.3306V46H41.8079ZM55.5011 32.9318L62.6602 46H58.5692L51.5238 32.9318H55.5011ZM67.3938 16.9091H71.5984L81.4847 41.0568H81.8256L91.712 16.9091H95.9165V46H92.6211V23.8977H92.337L83.2461 46H80.0643L70.9734 23.8977H70.6893V46H67.3938V16.9091ZM112.809 15.5455L103.434 50.375H100.366L109.741 15.5455H112.809ZM136.044 35.7727L117.749 45.0909V41.4545L131.783 34.6932L131.669 34.9205V34.3523L131.783 34.5795L117.749 27.8182V24.1818L136.044 33.5V35.7727Z" fill="white"/>
</svg>
