<?xml version="1.0" standalone="no"?>
<!DOCTYPE svg PUBLIC "-//W3C//DTD SVG 20010904//EN"
 "http://www.w3.org/TR/2001/REC-SVG-20010904/DTD/svg10.dtd">
<svg version="1.0" xmlns="http://www.w3.org/2000/svg"
 width="280.000000pt" height="280.000000pt" viewBox="0 0 280.000000 280.000000"
 preserveAspectRatio="xMidYMid meet">
<metadata>
Created by potrace 1.10, written by Peter Selinger 2001-2011
</metadata>
<g transform="translate(0.000000,280.000000) scale(0.050000,-0.050000)"
fill="#000000" stroke="none">
<path d="M2550 5368 c-1399 -204 -2317 -1220 -2318 -2568 -2 -1927 2023 -3173
3738 -2300 1384 705 1832 2442 966 3744 -503 755 -1547 1246 -2386 1124z m740
-135 c1928 -425 2652 -2736 1301 -4151 -1180 -1236 -3244 -921 -4010 612 -288
577 -337 1284 -131 1898 280 835 1060 1510 1900 1646 77 12 163 26 190 31 106
18 617 -7 750 -36z"/>
<path d="M2670 5146 c-143 -35 -154 -113 -62 -437 107 -380 114 -393 216 -385
122 9 236 329 244 685 3 136 -164 193 -398 137z"/>
<path d="M1995 4945 c-201 -121 -201 -133 10 -366 299 -330 383 -385 490 -319
83 51 84 46 -39 413 -139 415 -182 441 -461 272z"/>
<path d="M3349 5021 c-65 -26 -81 -57 -176 -334 -119 -349 -122 -383 -36 -434
95 -56 156 -19 408 246 309 326 308 315 76 450 -155 91 -197 102 -272 72z"/>
<path d="M1431 4578 c-193 -181 -193 -180 168 -418 358 -235 373 -241 459
-169 83 70 84 65 -96 357 -263 426 -303 443 -531 230z"/>
<path d="M3868 4658 c-93 -102 -369 -573 -355 -608 54 -142 159 -124 474 82
411 269 407 262 218 440 -154 144 -259 171 -337 86z"/>
<path d="M951 4159 c-155 -191 -151 -203 99 -333 443 -229 552 -255 624 -149
l45 67 -92 113 c-422 523 -478 548 -676 302z"/>
<path d="M4275 4182 c-339 -366 -383 -442 -304 -527 71 -77 190 -43 599 171
252 131 257 149 100 339 -155 189 -233 192 -395 17z"/>
<path d="M701 3745 c-87 -71 -149 -389 -83 -424 47 -25 432 -61 658 -61 l166
0 31 74 c44 105 33 115 -305 291 -313 162 -391 182 -467 120z"/>
<path d="M4619 3708 c-82 -40 -224 -114 -316 -165 l-167 -92 10 -79 c17 -123
94 -135 604 -91 329 28 335 35 246 314 -65 206 -139 228 -377 113z"/>
<path d="M1926 3661 c-148 -90 -130 -133 149 -364 139 -114 554 -458 924 -765
369 -307 714 -594 766 -637 90 -74 100 -78 155 -55 61 25 123 152 86 177 -18
13 -753 623 -965 802 -59 50 -137 114 -172 141 -35 28 -223 185 -419 350 -195
165 -380 320 -409 344 -53 43 -55 43 -115 7z"/>
<path d="M3234 3375 c-238 -168 -433 -309 -433 -315 0 -5 22 -26 49 -46 l49
-35 421 313 c435 323 436 324 396 364 -36 36 -17 47 -482 -281z"/>
<path d="M3423 3220 c-443 -352 -421 -329 -358 -381 63 -53 37 -69 439 276
383 330 386 334 347 390 -23 32 -64 4 -428 -285z"/>
<path d="M580 3107 l-65 -54 9 -167 c13 -244 16 -246 310 -177 514 119 546
134 531 253 -10 82 -18 85 -405 148 -104 16 -218 35 -253 41 -49 8 -77 -2
-127 -44z"/>
<path d="M4690 3099 c-55 -10 -167 -28 -250 -40 -160 -25 -179 -38 -180 -124
0 -72 49 -102 291 -174 505 -151 510 -150 525 97 15 256 -52 297 -386 241z"/>
<path d="M2399 2784 c-637 -452 -695 -527 -698 -896 -2 -177 -74 -263 -204
-243 -91 13 -335 -149 -336 -223 -1 -43 -8 -46 -70 -36 -86 14 -128 -25 -76
-71 80 -72 126 -62 305 64 137 98 185 121 248 121 156 0 239 92 301 332 25 97
47 132 122 198 84 74 92 89 103 197 l12 117 242 201 c133 110 253 210 267 223
20 19 14 33 -31 66 l-56 41 -129 -91z m-423 -568 c57 -57 1 -151 -75 -126 -68
21 -43 150 29 150 12 0 33 -11 46 -24z"/>
<path d="M2459 2456 c-210 -166 -292 -243 -314 -295 -16 -39 -52 -96 -81 -126
l-51 -55 88 1 c89 0 252 123 707 533 l77 70 -57 48 c-77 62 -49 76 -369 -176z"/>
<path d="M4097 2175 c-74 -89 -80 -103 -57 -144 58 -109 -117 -308 -207 -234
-21 18 -48 -2 -132 -97 l-104 -120 32 -95 c54 -162 55 -163 176 -12 61 75 232
281 381 457 149 176 264 322 257 324 -7 1 -69 7 -138 11 l-125 8 -83 -98z"/>
<path d="M4453 2187 c-20 -27 -173 -212 -340 -411 -411 -491 -400 -477 -381
-494 10 -8 83 -71 163 -140 l146 -127 44 57 c25 32 170 206 322 388 410 489
419 500 411 508 -354 301 -319 280 -365 219z"/>
<path d="M1414 2128 c-112 -35 -174 -117 -174 -233 0 -70 -10 -81 -169 -200
-146 -108 -169 -133 -170 -185 -1 -128 88 -140 103 -14 5 46 15 53 64 50 120
-9 292 160 292 285 0 144 62 198 204 178 102 -14 100 -15 125 96 14 66 -102
76 -275 23z"/>
<path d="M2860 1812 c0 -4 18 -47 40 -95 59 -131 53 -242 -19 -322 -97 -108
-168 -30 -196 217 l-16 138 -52 -90 c-73 -125 -83 -206 -44 -330 41 -130 25
-205 -45 -222 -102 -26 -169 112 -121 247 15 42 12 44 -31 24 -183 -85 -164
-409 35 -608 335 -336 905 -122 943 354 l10 125 -47 -90 c-98 -187 -269 -104
-188 90 45 108 38 207 -21 326 -57 116 -248 297 -248 236z m120 -882 c0 -59
-206 -97 -308 -58 -59 23 40 181 147 238 50 26 161 -98 161 -180z"/>
</g>
</svg>
